<svg width="28" height="28" viewBox="0 0 28 28" fill="none" xmlns="http://www.w3.org/2000/svg">
<path d="M23.3333 14.3201C23.3333 14.763 23.0042 15.1291 22.5771 15.1871L22.4583 15.1951L4.95833 15.1951C4.47509 15.1951 4.08333 14.8033 4.08333 14.3201C4.08333 13.8771 4.41251 13.511 4.8396 13.4531L4.95833 13.4451L22.4583 13.4451C22.9416 13.4451 23.3333 13.8368 23.3333 14.3201Z" fill="#212121"/>
<path d="M12.6338 20.7284C12.9763 21.0694 12.9775 21.6234 12.6365 21.9658C12.3265 22.2771 11.8405 22.3064 11.4974 22.053L11.399 21.9685L4.34072 14.9405C4.02847 14.6296 4.00007 14.1418 4.25551 13.7987L4.34066 13.7004L11.399 6.67126C11.7414 6.33026 12.2954 6.33141 12.6364 6.67382C12.9464 6.98511 12.9737 7.47128 12.7188 7.8133L12.6339 7.91126L6.1985 14.3208L12.6338 20.7284Z" fill="#212121"/>
</svg>
