<svg width="30" height="30" viewBox="0 0 30 30" fill="none" xmlns="http://www.w3.org/2000/svg">
<rect x="2" y="3" width="25" height="24" fill="white"/>
<path fill-rule="evenodd" clip-rule="evenodd" d="M21.3869 0.0150722C23.4847 -0.116042 25.5534 0.612371 27.1123 2.04006C28.54 3.59886 29.2684 5.66756 29.1518 7.77996V21.3867C29.2829 23.4991 28.54 25.5678 27.1268 27.1266C25.568 28.5543 23.4847 29.2827 21.3869 29.1516H7.78002C5.6676 29.2827 3.59889 28.5543 2.04008 27.1266C0.612376 25.5678 -0.116043 23.4991 0.0150724 21.3867V7.77996C-0.116043 5.66756 0.612376 3.59886 2.04008 2.04006C3.59889 0.612371 5.6676 -0.116042 7.78002 0.0150722H21.3869ZM13.0975 21.6492L22.902 11.8156C23.7907 10.9124 23.7907 9.45558 22.902 8.56692L21.0081 6.67304C20.1049 5.76981 18.6481 5.76981 17.7448 6.67304L16.7687 7.66368C16.6231 7.80937 16.6231 8.05703 16.7687 8.20271C16.7687 8.20271 19.0851 10.5045 19.1288 10.5628C19.2891 10.7376 19.391 10.9707 19.391 11.2329C19.391 11.7574 18.9686 12.1944 18.4295 12.1944C18.1819 12.1944 17.9488 12.0924 17.7885 11.9322L15.3556 9.51385C15.2391 9.39731 15.0351 9.39731 14.9186 9.51385L7.96944 16.4629C7.48868 16.9437 7.21188 17.5847 7.19731 18.2694L7.1099 21.7221C7.1099 21.9114 7.16817 22.0863 7.29929 22.2174C7.43041 22.3485 7.60523 22.4213 7.79462 22.4213H11.2182C11.9175 22.4213 12.5876 22.1445 13.0975 21.6492Z" fill="#FF4D67"/>
</svg>
