<svg width="428" height="291" viewBox="0 0 428 291" fill="none" xmlns="http://www.w3.org/2000/svg">
<g filter="url(#filter0_b_1_2095)">
<rect width="428" height="291" fill="#E0E0E0"/>
</g>
<rect x="147" y="278" width="134" height="5" rx="2.5" fill="#212121"/>
<path fill-rule="evenodd" clip-rule="evenodd" d="M370.929 251.332C371.433 251.332 371.842 251.705 371.842 252.165C371.842 252.193 371.84 252.22 371.837 252.247V254.542H371.832V254.549C371.832 254.565 371.834 254.58 371.835 254.596L371.835 254.596C371.836 254.61 371.837 254.625 371.837 254.639V254.952H371.854C372.126 257.916 374.781 260.226 378.035 260.329H378.404C381.659 260.228 384.316 257.917 384.586 254.952H384.608V252.175L384.615 252.175L384.615 252.165C384.615 251.705 385.023 251.332 385.527 251.332C386.031 251.332 386.44 251.705 386.44 252.165C386.44 252.19 386.439 252.214 386.436 252.238V254.282H386.425H386.425C386.428 258.111 383.295 261.336 379.133 261.79V264.323H382.571V264.334C382.583 264.333 382.595 264.333 382.607 264.333C383.111 264.333 383.52 264.706 383.52 265.167C383.52 265.627 383.111 266 382.607 266C382.595 266 382.583 266 382.571 265.999V266H373.882V266C373.871 266 373.86 266 373.849 266C373.345 266 372.936 265.627 372.936 265.167C372.936 264.706 373.345 264.333 373.849 264.333C373.86 264.333 373.871 264.333 373.882 264.334V264.323H377.327V261.79C373.156 261.347 370.012 258.118 370.017 254.282C370.017 254.262 370.019 254.243 370.02 254.225H370.02C370.022 254.209 370.023 254.194 370.024 254.179V252.269C370.019 252.235 370.017 252.2 370.017 252.165C370.017 251.705 370.425 251.332 370.929 251.332ZM383.148 252.879C383.148 253.382 383.148 253.912 383.118 254.415C383.096 254.869 383.02 255.32 382.892 255.759C382.607 256.681 381.998 257.491 381.159 258.066C379.438 259.306 377.011 259.306 375.29 258.066C374.449 257.493 373.839 256.682 373.556 255.759C373.427 255.32 373.352 254.869 373.33 254.415C373.298 253.912 373.301 253.382 373.301 252.879V248.665C373.301 248.165 373.304 245.955 373.301 245.581C373.316 245.125 373.402 244.672 373.557 244.238C374.141 242.324 376.05 241 378.225 241C380.4 241 382.309 242.324 382.893 244.238C383.03 244.676 383.116 245.126 383.148 245.581C383.181 246.085 383.148 248.165 383.148 248.665V252.879H383.148ZM381.323 253.665C381.323 253.985 381.315 254.092 381.293 254.412C381.281 254.703 381.233 254.991 381.151 255.272C380.976 255.862 380.596 256.384 380.067 256.759C378.984 257.528 377.468 257.528 376.385 256.759C375.854 256.385 375.472 255.863 375.297 255.272C375.217 254.991 375.169 254.702 375.155 254.412C375.137 254.092 375.133 253.985 375.133 253.665C375.133 249.232 375.111 245.944 375.14 245.591C375.162 245.3 375.214 245.012 375.297 244.731C375.472 244.14 375.854 243.618 376.385 243.244C377.468 242.475 378.984 242.475 380.067 243.244C380.596 243.619 380.976 244.141 381.151 244.731C381.244 245.011 381.303 245.299 381.326 245.591C381.352 245.971 381.323 249.218 381.323 253.665Z" fill="#424242"/>
<path fill-rule="evenodd" clip-rule="evenodd" d="M50.8672 240C59.0303 240 65.6477 246.044 65.6477 253.5C65.6477 260.956 59.0303 267 50.8672 267C42.7042 267 36.0867 260.956 36.0867 253.5C36.0867 246.044 42.7042 240 50.8672 240ZM50.8668 241.573C58.0786 241.573 63.9244 246.914 63.9239 253.501C63.9233 260.088 58.0767 265.428 50.8648 265.427C43.6529 265.427 37.8067 260.087 37.8067 253.5C37.8068 250.336 39.1829 247.303 41.6321 245.066C44.0814 242.829 47.4032 241.572 50.8668 241.573ZM46.1914 247.644C45.7346 247.639 45.2946 247.802 44.9701 248.096C44.6455 248.389 44.4635 248.79 44.4647 249.207C44.4647 250.078 45.2378 250.784 46.1914 250.784C47.1451 250.784 47.9182 250.078 47.9182 249.207C47.9194 248.79 47.7373 248.389 47.4128 248.096C47.0882 247.802 46.6483 247.639 46.1914 247.644ZM60.7171 255.825C59.93 259.71 55.8251 262.953 50.8651 262.953C45.9447 262.953 41.8638 259.757 41.0306 255.916C40.8617 254.958 41.7212 254.732 42.5308 254.911C45.2392 255.626 48.0479 255.974 50.867 255.943C53.6797 255.973 56.4821 255.626 59.1847 254.914C59.9718 254.732 60.8146 254.938 60.7171 255.825ZM58.0452 256.365C57.9683 256.392 57.8904 256.413 57.8117 256.436C57.8035 256.44 58.0637 256.362 58.0559 256.365C55.7188 256.953 53.3031 257.238 50.8792 257.212C47.9867 257.212 45.3997 256.919 43.6194 256.335C42.3287 255.984 42.5763 257.371 43.4834 257.796C45.8042 258.761 48.3291 259.248 50.8789 259.221C53.9118 259.221 56.6144 258.576 58.3995 257.742C59.2442 257.246 59.4113 255.916 58.0452 256.365ZM55.5524 247.644C55.0955 247.639 54.6555 247.802 54.3309 248.096C54.0063 248.389 53.8242 248.79 53.8253 249.207C53.8162 249.776 54.1433 250.305 54.6814 250.592C55.2194 250.879 55.885 250.879 56.423 250.592C56.9611 250.305 57.2882 249.776 57.2791 249.207C57.2802 248.79 57.0981 248.389 56.7736 248.096C56.4491 247.802 56.0092 247.64 55.5524 247.644Z" fill="#212121"/>
<path fill-rule="evenodd" clip-rule="evenodd" d="M113.821 177.36C113.821 174.784 113.821 173.496 114.322 172.512C114.763 171.646 115.467 170.942 116.333 170.501C117.317 170 118.605 170 121.181 170H305.461C308.037 170 309.325 170 310.309 170.501C311.175 170.942 311.879 171.646 312.32 172.512C312.821 173.496 312.821 174.784 312.821 177.36V204.64C312.821 207.216 312.821 208.504 312.32 209.488C311.879 210.354 311.175 211.058 310.309 211.499C309.325 212 308.037 212 305.461 212H121.181C118.605 212 117.317 212 116.333 211.499C115.467 211.058 114.763 210.354 114.322 209.488C113.821 208.504 113.821 207.216 113.821 204.64V177.36Z" fill="white"/>
<path d="M198.683 190.227L197.478 190.568C197.402 190.367 197.291 190.172 197.143 189.983C196.999 189.79 196.802 189.631 196.552 189.506C196.302 189.381 195.982 189.318 195.592 189.318C195.058 189.318 194.613 189.441 194.257 189.688C193.904 189.93 193.728 190.239 193.728 190.614C193.728 190.947 193.849 191.21 194.092 191.403C194.334 191.597 194.713 191.758 195.228 191.886L196.524 192.205C197.304 192.394 197.885 192.684 198.268 193.074C198.65 193.46 198.842 193.958 198.842 194.568C198.842 195.068 198.698 195.515 198.41 195.909C198.126 196.303 197.728 196.614 197.217 196.841C196.705 197.068 196.111 197.182 195.433 197.182C194.543 197.182 193.806 196.989 193.222 196.602C192.639 196.216 192.27 195.652 192.115 194.909L193.387 194.591C193.508 195.061 193.738 195.413 194.075 195.648C194.416 195.883 194.861 196 195.41 196C196.035 196 196.531 195.867 196.899 195.602C197.27 195.333 197.455 195.011 197.455 194.636C197.455 194.333 197.349 194.08 197.137 193.875C196.925 193.667 196.599 193.511 196.16 193.409L194.705 193.068C193.906 192.879 193.319 192.585 192.944 192.188C192.573 191.786 192.387 191.284 192.387 190.682C192.387 190.189 192.525 189.754 192.802 189.375C193.082 188.996 193.463 188.699 193.944 188.483C194.429 188.267 194.978 188.159 195.592 188.159C196.455 188.159 197.133 188.348 197.626 188.727C198.122 189.106 198.474 189.606 198.683 190.227ZM200.54 200.273V188.273H201.836V189.659H201.995C202.093 189.508 202.23 189.314 202.404 189.08C202.582 188.841 202.836 188.629 203.165 188.443C203.499 188.254 203.949 188.159 204.518 188.159C205.252 188.159 205.9 188.343 206.461 188.71C207.021 189.078 207.459 189.598 207.773 190.273C208.088 190.947 208.245 191.742 208.245 192.659C208.245 193.583 208.088 194.384 207.773 195.062C207.459 195.737 207.023 196.259 206.466 196.631C205.91 196.998 205.268 197.182 204.54 197.182C203.98 197.182 203.531 197.089 203.194 196.903C202.857 196.714 202.597 196.5 202.415 196.261C202.233 196.019 202.093 195.818 201.995 195.659H201.881V200.273H200.54ZM201.858 192.636C201.858 193.295 201.955 193.877 202.148 194.381C202.341 194.881 202.624 195.273 202.995 195.557C203.366 195.837 203.821 195.977 204.358 195.977C204.919 195.977 205.387 195.83 205.762 195.534C206.141 195.235 206.425 194.833 206.614 194.33C206.807 193.822 206.904 193.258 206.904 192.636C206.904 192.023 206.809 191.47 206.62 190.977C206.434 190.481 206.152 190.089 205.773 189.801C205.398 189.509 204.927 189.364 204.358 189.364C203.813 189.364 203.355 189.502 202.983 189.778C202.612 190.051 202.332 190.434 202.143 190.926C201.953 191.415 201.858 191.985 201.858 192.636ZM212.538 197.205C211.985 197.205 211.484 197.1 211.033 196.892C210.582 196.68 210.224 196.375 209.959 195.977C209.694 195.576 209.561 195.091 209.561 194.523C209.561 194.023 209.66 193.617 209.857 193.307C210.054 192.992 210.317 192.746 210.646 192.568C210.976 192.39 211.34 192.258 211.737 192.17C212.139 192.08 212.542 192.008 212.948 191.955C213.478 191.886 213.908 191.835 214.237 191.801C214.571 191.763 214.813 191.701 214.965 191.614C215.12 191.527 215.198 191.375 215.198 191.159V191.114C215.198 190.553 215.044 190.117 214.737 189.807C214.434 189.496 213.974 189.341 213.357 189.341C212.716 189.341 212.215 189.481 211.851 189.761C211.487 190.042 211.232 190.341 211.084 190.659L209.811 190.205C210.038 189.674 210.341 189.261 210.72 188.966C211.103 188.667 211.519 188.458 211.97 188.341C212.425 188.22 212.872 188.159 213.311 188.159C213.591 188.159 213.913 188.193 214.277 188.261C214.644 188.326 214.999 188.46 215.34 188.665C215.684 188.869 215.97 189.178 216.198 189.591C216.425 190.004 216.538 190.557 216.538 191.25V197H215.198V195.818H215.129C215.038 196.008 214.887 196.21 214.675 196.426C214.463 196.642 214.18 196.826 213.828 196.977C213.476 197.129 213.046 197.205 212.538 197.205ZM212.743 196C213.273 196 213.72 195.896 214.084 195.688C214.451 195.479 214.728 195.21 214.913 194.881C215.103 194.551 215.198 194.205 215.198 193.841V192.614C215.141 192.682 215.016 192.744 214.823 192.801C214.633 192.854 214.413 192.902 214.163 192.943C213.917 192.981 213.677 193.015 213.442 193.045C213.211 193.072 213.023 193.095 212.879 193.114C212.531 193.159 212.205 193.233 211.902 193.335C211.603 193.434 211.36 193.583 211.175 193.784C210.993 193.981 210.902 194.25 210.902 194.591C210.902 195.057 211.074 195.409 211.419 195.648C211.768 195.883 212.209 196 212.743 196ZM222.211 197.182C221.393 197.182 220.689 196.989 220.098 196.602C219.507 196.216 219.052 195.684 218.734 195.006C218.416 194.328 218.257 193.553 218.257 192.682C218.257 191.795 218.42 191.013 218.745 190.335C219.075 189.653 219.533 189.121 220.12 188.739C220.711 188.352 221.401 188.159 222.189 188.159C222.802 188.159 223.355 188.273 223.848 188.5C224.34 188.727 224.744 189.045 225.058 189.455C225.372 189.864 225.567 190.341 225.643 190.886H224.302C224.2 190.489 223.973 190.136 223.62 189.83C223.272 189.519 222.802 189.364 222.211 189.364C221.689 189.364 221.23 189.5 220.836 189.773C220.446 190.042 220.141 190.422 219.922 190.915C219.706 191.403 219.598 191.977 219.598 192.636C219.598 193.311 219.704 193.898 219.916 194.398C220.132 194.898 220.435 195.286 220.825 195.562C221.219 195.839 221.681 195.977 222.211 195.977C222.56 195.977 222.876 195.917 223.16 195.795C223.444 195.674 223.685 195.5 223.882 195.273C224.079 195.045 224.219 194.773 224.302 194.455H225.643C225.567 194.97 225.38 195.434 225.081 195.847C224.785 196.256 224.393 196.581 223.905 196.824C223.42 197.062 222.855 197.182 222.211 197.182ZM230.942 197.182C230.102 197.182 229.376 196.996 228.766 196.625C228.16 196.25 227.692 195.727 227.363 195.057C227.037 194.383 226.874 193.598 226.874 192.705C226.874 191.811 227.037 191.023 227.363 190.341C227.692 189.655 228.151 189.121 228.738 188.739C229.329 188.352 230.018 188.159 230.806 188.159C231.261 188.159 231.71 188.235 232.153 188.386C232.596 188.538 232.999 188.784 233.363 189.125C233.727 189.462 234.016 189.909 234.232 190.466C234.448 191.023 234.556 191.708 234.556 192.523V193.091H227.829V191.932H233.192C233.192 191.439 233.094 191 232.897 190.614C232.704 190.227 232.427 189.922 232.067 189.699C231.711 189.475 231.291 189.364 230.806 189.364C230.272 189.364 229.81 189.496 229.42 189.761C229.033 190.023 228.736 190.364 228.528 190.784C228.319 191.205 228.215 191.655 228.215 192.136V192.909C228.215 193.568 228.329 194.127 228.556 194.585C228.787 195.04 229.107 195.386 229.516 195.625C229.925 195.86 230.401 195.977 230.942 195.977C231.295 195.977 231.613 195.928 231.897 195.83C232.185 195.727 232.433 195.576 232.641 195.375C232.85 195.17 233.011 194.917 233.124 194.614L234.42 194.977C234.283 195.417 234.054 195.803 233.732 196.136C233.41 196.466 233.013 196.723 232.539 196.909C232.066 197.091 231.533 197.182 230.942 197.182Z" fill="#212121"/>
<path fill-rule="evenodd" clip-rule="evenodd" d="M12 177.36C12 174.784 12 173.496 12.5014 172.512C12.9424 171.646 13.6461 170.942 14.5116 170.501C15.4956 170 16.7838 170 19.36 170H99.64C102.216 170 103.504 170 104.488 170.501C105.354 170.942 106.058 171.646 106.499 172.512C107 173.496 107 174.784 107 177.36V204.64C107 207.216 107 208.504 106.499 209.488C106.058 210.354 105.354 211.058 104.488 211.499C103.504 212 102.216 212 99.64 212H19.36C16.7838 212 15.4956 212 14.5116 211.499C13.6461 211.058 12.9424 210.354 12.5014 209.488C12 208.504 12 207.216 12 204.64V177.36Z" fill="#9E9E9E"/>
<path d="M51.4592 185.364V197H50.0501V186.841H49.9819L47.141 188.727V187.295L50.0501 185.364H51.4592ZM54.4858 197V195.977L58.3267 191.773C58.7775 191.28 59.1487 190.852 59.4403 190.489C59.732 190.121 59.9479 189.777 60.0881 189.455C60.232 189.129 60.304 188.788 60.304 188.432C60.304 188.023 60.2055 187.669 60.0085 187.369C59.8153 187.07 59.5502 186.839 59.2131 186.676C58.8759 186.513 58.4972 186.432 58.0767 186.432C57.6297 186.432 57.2396 186.525 56.9062 186.71C56.5767 186.892 56.321 187.148 56.1392 187.477C55.9612 187.807 55.8722 188.193 55.8722 188.636H54.5312C54.5312 187.955 54.6884 187.356 55.0028 186.841C55.3172 186.326 55.7453 185.924 56.2869 185.636C56.8324 185.348 57.4441 185.205 58.1222 185.205C58.804 185.205 59.4081 185.348 59.9347 185.636C60.4612 185.924 60.8741 186.312 61.1733 186.801C61.4725 187.29 61.6222 187.833 61.6222 188.432C61.6222 188.86 61.5445 189.278 61.3892 189.688C61.2377 190.093 60.9725 190.545 60.5938 191.045C60.2188 191.542 59.6979 192.148 59.0312 192.864L56.4176 195.659V195.75H61.8267V197H54.4858ZM67.7851 197.159C67.0351 197.159 66.3666 197.03 65.7794 196.773C65.1961 196.515 64.7321 196.157 64.3874 195.699C64.0465 195.237 63.8609 194.701 63.8306 194.091H65.2624C65.2927 194.466 65.4215 194.79 65.6488 195.062C65.876 195.331 66.1734 195.54 66.5408 195.688C66.9082 195.835 67.3154 195.909 67.7624 195.909C68.2624 195.909 68.7056 195.822 69.0919 195.648C69.4783 195.473 69.7813 195.231 70.001 194.92C70.2207 194.61 70.3306 194.25 70.3306 193.841C70.3306 193.413 70.2245 193.036 70.0124 192.71C69.8003 192.381 69.4897 192.123 69.0806 191.938C68.6715 191.752 68.1715 191.659 67.5806 191.659H66.6488V190.409H67.5806C68.0427 190.409 68.448 190.326 68.7965 190.159C69.1488 189.992 69.4234 189.758 69.6203 189.455C69.8211 189.152 69.9215 188.795 69.9215 188.386C69.9215 187.992 69.8344 187.65 69.6601 187.358C69.4859 187.066 69.2397 186.839 68.9215 186.676C68.6071 186.513 68.2359 186.432 67.8078 186.432C67.4063 186.432 67.0275 186.506 66.6715 186.653C66.3192 186.797 66.0313 187.008 65.8078 187.284C65.5844 187.557 65.4631 187.886 65.4442 188.273H64.0806C64.1033 187.663 64.287 187.129 64.6317 186.67C64.9764 186.208 65.4272 185.848 65.984 185.591C66.5446 185.333 67.1601 185.205 67.8306 185.205C68.5503 185.205 69.1677 185.35 69.6828 185.642C70.198 185.93 70.5938 186.311 70.8703 186.784C71.1469 187.258 71.2851 187.769 71.2851 188.318C71.2851 188.973 71.1128 189.532 70.7681 189.994C70.4272 190.456 69.9631 190.777 69.376 190.955V191.045C70.1109 191.167 70.6847 191.479 71.0976 191.983C71.5105 192.483 71.7169 193.102 71.7169 193.841C71.7169 194.473 71.5446 195.042 71.1999 195.545C70.859 196.045 70.3931 196.439 69.8022 196.727C69.2113 197.015 68.5389 197.159 67.7851 197.159Z" fill="#FAFAFA"/>
<path fill-rule="evenodd" clip-rule="evenodd" d="M370.016 123.36C370.016 120.784 370.016 119.496 370.518 118.512C370.959 117.646 371.662 116.942 372.528 116.501C373.512 116 374.8 116 377.376 116H408.656C411.232 116 412.521 116 413.505 116.501C414.37 116.942 415.074 117.646 415.515 118.512C416.016 119.496 416.016 120.784 416.016 123.36V150.64C416.016 153.216 416.016 154.504 415.515 155.488C415.074 156.354 414.37 157.058 413.505 157.499C412.521 158 411.232 158 408.656 158H377.376C374.8 158 373.512 158 372.528 157.499C371.662 157.058 370.959 156.354 370.518 155.488C370.016 154.504 370.016 153.216 370.016 150.64V123.36Z" fill="#9E9E9E"/>
<path fill-rule="evenodd" clip-rule="evenodd" d="M384.482 132.778C384.466 132.792 384.434 132.82 384.399 132.852C384.373 132.875 384.353 132.894 384.31 132.932L381.964 135.075C381.902 135.134 381.86 135.174 381.76 135.264C381.705 135.315 381.664 135.354 381.577 135.438C381.415 135.582 381.243 135.754 381.083 135.935C380.931 136.081 380.81 136.251 380.726 136.438C380.552 136.922 380.552 137.392 380.707 137.829L380.727 137.88C380.813 138.064 380.933 138.233 381.083 138.379C381.243 138.559 381.415 138.73 381.596 138.893C381.664 138.96 381.705 138.999 381.76 139.05L381.964 139.235L384.103 141.193C384.203 141.284 384.252 141.328 384.309 141.378C384.37 141.436 384.433 141.494 384.497 141.549C384.509 141.558 387.235 144.047 387.235 144.047C387.32 144.124 387.388 144.185 387.54 144.319C387.557 144.334 387.581 144.357 387.589 144.364C387.628 144.402 387.651 144.424 387.666 144.438C387.984 144.728 388.35 144.973 388.75 145.162C389.159 145.348 389.586 145.476 390.026 145.547C390.441 145.609 390.853 145.642 391.265 145.648C391.336 145.649 391.395 145.65 391.527 145.651C391.654 145.652 391.709 145.653 391.778 145.654L399.903 145.654C399.987 145.653 400.043 145.652 400.172 145.651C400.304 145.65 400.364 145.649 400.44 145.648C400.854 145.641 401.269 145.607 401.679 145.545C402.128 145.476 402.561 145.345 402.965 145.158C403.371 144.969 403.743 144.722 404.064 144.427C404.384 144.133 404.653 143.796 404.861 143.427C405.065 143.053 405.206 142.66 405.282 142.254C405.351 141.875 405.387 141.495 405.392 141.113C405.395 141.035 405.397 140.96 405.399 140.794C405.4 140.715 405.401 140.68 405.402 140.637L405.402 133.648C405.401 133.594 405.4 133.559 405.399 133.482L405.398 133.401C405.396 133.3 405.394 133.223 405.391 133.148C405.387 132.789 405.351 132.413 405.287 132.041C405.207 131.63 405.067 131.24 404.868 130.875C404.659 130.502 404.392 130.167 404.073 129.876C403.756 129.584 403.387 129.338 402.982 129.15C402.581 128.966 402.156 128.838 401.718 128.767C401.298 128.706 400.886 128.674 400.473 128.669C400.336 128.664 400.215 128.663 399.948 128.663C399.86 128.662 399.757 128.661 399.642 128.66C399.555 128.66 399.486 128.66 399.331 128.66H392.409C392.098 128.66 391.958 128.66 391.78 128.663C391.524 128.663 391.403 128.664 391.248 128.67C390.855 128.674 390.443 128.706 390.036 128.765C389.586 128.838 389.159 128.966 388.76 129.148C388.35 129.341 387.984 129.586 387.666 129.877C387.651 129.89 387.628 129.912 387.59 129.949C387.581 129.957 387.54 129.995 387.54 129.995C387.388 130.129 387.32 130.19 387.235 130.267L386.884 130.588L384.547 132.726C384.526 132.741 384.504 132.758 384.482 132.778ZM399.331 129.919C399.485 129.919 399.552 129.919 399.636 129.919C399.746 129.92 399.843 129.92 399.936 129.922C400.197 129.922 400.306 129.923 400.437 129.928C400.802 129.932 401.148 129.959 401.49 130.008C401.785 130.056 402.082 130.146 402.361 130.274C402.631 130.399 402.881 130.566 403.097 130.765C403.316 130.965 403.498 131.193 403.638 131.442C403.774 131.693 403.873 131.967 403.927 132.25C403.98 132.551 404.009 132.865 404.013 133.18C404.017 133.261 404.018 133.328 404.02 133.42L404.021 133.498C404.022 133.578 404.023 133.615 404.024 133.661L404.024 140.625C404.023 140.659 404.022 140.696 404.021 140.777C404.019 140.932 404.017 141 404.014 141.082C404.01 141.417 403.979 141.733 403.923 142.045C403.87 142.326 403.772 142.601 403.631 142.858C403.492 143.105 403.308 143.337 403.088 143.539C402.869 143.74 402.617 143.907 402.34 144.036C402.061 144.165 401.761 144.256 401.452 144.303C401.111 144.355 400.763 144.383 400.414 144.389C400.343 144.39 400.286 144.391 400.158 144.392C400.025 144.393 399.966 144.394 399.889 144.395L391.792 144.395C391.731 144.394 391.672 144.393 391.54 144.392C391.414 144.391 391.358 144.39 391.289 144.389C390.94 144.385 390.596 144.357 390.256 144.306C389.955 144.258 389.655 144.167 389.373 144.039C389.109 143.914 388.859 143.747 388.641 143.548L388.587 143.496C388.534 143.445 388.511 143.423 388.484 143.402C388.347 143.281 388.284 143.225 388.21 143.157L385.478 140.662C385.453 140.641 385.438 140.628 385.427 140.62C385.378 140.576 385.337 140.539 385.299 140.502C385.22 140.432 385.177 140.393 385.078 140.303L382.939 138.346L382.735 138.16C382.693 138.121 382.659 138.088 382.581 138.013C382.411 137.86 382.269 137.717 382.135 137.566L382.094 137.524C382.059 137.491 382.03 137.454 382.008 137.413C381.955 137.245 381.955 137.067 382.009 136.899C382.029 136.86 382.057 136.824 382.091 136.793L382.138 136.745C382.269 136.596 382.409 136.454 382.559 136.321C382.659 136.226 382.693 136.193 382.735 136.154C382.843 136.056 382.891 136.012 382.951 135.954L385.078 134.011L385.285 133.822C385.326 133.785 385.344 133.769 385.366 133.749L385.411 133.711C385.445 133.684 385.463 133.669 385.481 133.652L387.859 131.478L388.21 131.157C388.284 131.089 388.347 131.033 388.484 130.912C388.511 130.891 388.534 130.869 388.585 130.82L388.641 130.767C388.859 130.567 389.109 130.4 389.383 130.27C389.655 130.147 389.955 130.057 390.264 130.007C390.594 129.959 390.938 129.932 391.283 129.928C391.434 129.923 391.543 129.922 391.792 129.922C391.97 129.919 392.106 129.919 392.409 129.919H399.331ZM392.803 140.488C392.748 140.538 392.681 140.579 392.606 140.607C392.374 140.695 392.107 140.646 391.93 140.484C391.689 140.262 391.689 139.905 391.93 139.684C391.965 139.652 392.003 139.624 392.045 139.601L394.721 137.154L391.93 134.608L391.938 134.6C391.883 134.549 391.839 134.488 391.808 134.42C391.712 134.208 391.765 133.964 391.943 133.802C392.185 133.582 392.576 133.582 392.818 133.802C392.854 133.834 392.884 133.869 392.909 133.907L395.594 136.355L398.305 133.877C398.325 133.851 398.348 133.826 398.373 133.802C398.55 133.64 398.816 133.592 399.047 133.679C399.278 133.766 399.429 133.972 399.429 134.2C399.429 134.353 399.362 134.495 399.248 134.599L399.255 134.605L396.468 137.153L399.187 139.632C399.212 139.648 399.236 139.667 399.259 139.687C399.436 139.848 399.489 140.091 399.394 140.302C399.298 140.514 399.073 140.651 398.823 140.651C398.656 140.651 398.5 140.59 398.387 140.487L398.38 140.493L395.595 137.952L392.812 140.496L392.803 140.488Z" fill="#FAFAFA"/>
<rect x="12" y="116" width="42" height="42" rx="4.6" fill="white"/>
<path d="M44.6266 138.664H40.0314V142.633C40.0314 142.713 40.0314 142.787 40.0314 142.863C40.0314 142.93 40.0314 142.993 40.0285 143.06C40.0265 143.203 40.0129 143.345 39.988 143.486C39.9609 143.627 39.9117 143.762 39.8421 143.89C39.7708 144.017 39.6776 144.133 39.5662 144.233C39.4543 144.333 39.3265 144.417 39.1871 144.483C39.046 144.546 38.8961 144.591 38.7416 144.616C38.5867 144.638 38.4303 144.651 38.2735 144.653C38.2005 144.653 38.1297 144.656 38.0582 144.656H32.147C32.074 144.656 32.0036 144.653 31.9317 144.653C31.7749 144.651 31.6185 144.638 31.4636 144.616C31.3093 144.591 31.1595 144.546 31.0185 144.483C30.8791 144.417 30.7513 144.333 30.6394 144.233C30.5279 144.133 30.4347 144.017 30.3635 143.89C30.2939 143.762 30.2447 143.627 30.2176 143.486C30.1925 143.345 30.1788 143.203 30.1767 143.06C30.1767 142.993 30.1738 142.93 30.1738 142.863C30.1738 142.787 30.1738 142.713 30.1738 142.633V138.664H25.506C25.0339 138.664 24.4282 137.734 24.9952 137.218C25.4772 136.781 33.0526 129.883 34.6379 128.447C34.7544 128.316 34.919 128.228 35.101 128.2H35.1134C35.2708 128.208 35.417 128.277 35.5147 128.39C37.1001 129.826 44.7014 136.781 45.1837 137.218C45.7511 137.734 45.276 138.664 44.6266 138.664Z" fill="#212121"/>
<rect x="320.748" y="116" width="35" height="42" rx="4.6" fill="white"/>
<path d="M330.786 129.636H333.151L338.712 143.219H338.904L344.465 129.636H346.83V146H344.976V133.567H344.816L339.703 146H337.913L332.799 133.567H332.64V146H330.786V129.636Z" fill="#212121"/>
<rect x="279.144" y="116" width="35" height="42" rx="4.6" fill="white"/>
<path d="M303.696 129.636V146H301.778L292.861 133.152H292.701V146H290.72V129.636H292.638L301.586 142.516H301.746V129.636H303.696Z" fill="#212121"/>
<rect x="237.54" y="116" width="35" height="42" rx="4.6" fill="white"/>
<path d="M250.269 146V129.636H255.99C257.13 129.636 258.07 129.833 258.811 130.228C259.551 130.616 260.102 131.141 260.465 131.802C260.827 132.457 261.008 133.184 261.008 133.983C261.008 134.686 260.883 135.267 260.632 135.725C260.387 136.183 260.063 136.545 259.658 136.811C259.258 137.078 258.824 137.275 258.355 137.403V137.562C258.856 137.594 259.359 137.77 259.865 138.09C260.371 138.409 260.795 138.868 261.136 139.464C261.477 140.061 261.647 140.79 261.647 141.653C261.647 142.474 261.461 143.211 261.088 143.867C260.715 144.522 260.126 145.041 259.322 145.425C258.518 145.808 257.471 146 256.182 146H250.269ZM252.251 144.242H256.182C257.476 144.242 258.395 143.992 258.939 143.491C259.487 142.985 259.762 142.373 259.762 141.653C259.762 141.099 259.62 140.588 259.338 140.119C259.056 139.645 258.654 139.267 258.132 138.985C257.61 138.697 256.992 138.553 256.278 138.553H252.251V144.242ZM252.251 136.827H255.926C256.523 136.827 257.061 136.71 257.54 136.476C258.025 136.241 258.409 135.911 258.691 135.485C258.979 135.059 259.122 134.558 259.122 133.983C259.122 133.264 258.872 132.654 258.371 132.153C257.871 131.647 257.077 131.394 255.99 131.394H252.251V136.827Z" fill="#212121"/>
<rect x="197.03" y="116" width="35" height="42" rx="4.6" fill="white"/>
<path d="M209.598 129.636L214.455 143.411H214.647L219.505 129.636H221.583L215.574 146H213.529L207.52 129.636H209.598Z" fill="#212121"/>
<rect x="155.425" y="116" width="35" height="42" rx="4.6" fill="white"/>
<path d="M180.455 134.75H178.473C178.356 134.18 178.151 133.679 177.858 133.248C177.57 132.816 177.219 132.454 176.803 132.161C176.393 131.863 175.938 131.639 175.437 131.49C174.936 131.341 174.414 131.266 173.871 131.266C172.88 131.266 171.982 131.517 171.178 132.017C170.379 132.518 169.743 133.256 169.269 134.231C168.8 135.205 168.565 136.401 168.565 137.818C168.565 139.235 168.8 140.431 169.269 141.406C169.743 142.381 170.379 143.118 171.178 143.619C171.982 144.12 172.88 144.37 173.871 144.37C174.414 144.37 174.936 144.295 175.437 144.146C175.938 143.997 176.393 143.776 176.803 143.483C177.219 143.185 177.57 142.82 177.858 142.388C178.151 141.952 178.356 141.451 178.473 140.886H180.455C180.305 141.723 180.034 142.471 179.64 143.132C179.245 143.792 178.755 144.354 178.169 144.817C177.583 145.276 176.926 145.624 176.196 145.864C175.471 146.104 174.696 146.224 173.871 146.224C172.475 146.224 171.234 145.883 170.147 145.201C169.061 144.519 168.206 143.55 167.583 142.293C166.959 141.036 166.648 139.544 166.648 137.818C166.648 136.092 166.959 134.601 167.583 133.344C168.206 132.087 169.061 131.117 170.147 130.435C171.234 129.754 172.475 129.413 173.871 129.413C174.696 129.413 175.471 129.532 176.196 129.772C176.926 130.012 177.583 130.363 178.169 130.827C178.755 131.285 179.245 131.844 179.64 132.505C180.034 133.16 180.305 133.908 180.455 134.75Z" fill="#212121"/>
<rect x="114.916" y="116" width="35" height="42" rx="4.6" fill="white"/>
<path d="M128.703 129.636L132.922 136.444H133.05L137.269 129.636H139.602L134.456 137.818L139.602 146H137.269L133.05 139.32H132.922L128.703 146H126.37L131.644 137.818L126.37 129.636H128.703Z" fill="#212121"/>
<rect x="73.3117" y="116" width="35" height="42" rx="4.6" fill="white"/>
<path d="M85.7837 146V144.562L94.6047 131.394H85.6878V129.636H96.9698V131.075L88.1487 144.242H97.0656V146H85.7837Z" fill="#212121"/>
<rect x="361.257" y="62" width="35" height="42" rx="4.6" fill="white"/>
<path d="M374.976 92V75.6364H376.957V90.2422H384.564V92H374.976Z" fill="#212121"/>
<rect x="319.653" y="62" width="35" height="42" rx="4.6" fill="white"/>
<path d="M332.361 92V75.6364H334.342V83.7543H334.534L341.885 75.6364H344.474L337.602 83.0192L344.474 92H342.077L336.388 84.3935L334.342 86.6946V92H332.361Z" fill="#212121"/>
<rect x="279.144" y="62" width="35" height="42" rx="4.6" fill="white"/>
<path d="M299.346 75.6364H301.328V87.3338C301.328 88.3778 301.136 89.2647 300.752 89.9945C300.369 90.7243 299.828 91.2782 299.13 91.6564C298.433 92.0346 297.61 92.2237 296.661 92.2237C295.767 92.2237 294.97 92.0613 294.272 91.7363C293.575 91.4061 293.026 90.9373 292.627 90.3301C292.227 89.7228 292.027 89.0011 292.027 88.1648H293.977C293.977 88.6282 294.091 89.033 294.32 89.3793C294.555 89.7202 294.874 89.9865 295.279 90.1783C295.684 90.37 296.145 90.4659 296.661 90.4659C297.231 90.4659 297.716 90.3461 298.116 90.1064C298.515 89.8667 298.819 89.5151 299.027 89.0517C299.24 88.5829 299.346 88.0103 299.346 87.3338V75.6364Z" fill="#212121"/>
<rect x="237.54" y="62" width="35" height="42" rx="4.6" fill="white"/>
<path d="M249.259 92V75.6364H251.24V82.9233H259.965V75.6364H261.947V92H259.965V84.6811H251.24V92H249.259Z" fill="#212121"/>
<rect x="197.03" y="62" width="35" height="42" rx="4.6" fill="white"/>
<path d="M219.902 80.75C219.726 80.212 219.494 79.7299 219.207 79.3038C218.924 78.8723 218.586 78.5048 218.192 78.2012C217.803 77.8975 217.361 77.6658 216.866 77.506C216.37 77.3462 215.827 77.2663 215.236 77.2663C214.266 77.2663 213.385 77.5167 212.591 78.0174C211.797 78.5181 211.166 79.2559 210.697 80.2306C210.229 81.2054 209.994 82.4013 209.994 83.8182C209.994 85.2351 210.231 86.4309 210.705 87.4057C211.179 88.3805 211.821 89.1183 212.631 89.619C213.441 90.1197 214.351 90.37 215.363 90.37C216.301 90.37 217.127 90.1703 217.84 89.7708C218.559 89.3659 219.119 88.796 219.518 88.0609C219.923 87.3205 220.126 86.4496 220.126 85.4482L220.733 85.576H215.811V83.8182H222.043V85.576C222.043 86.9237 221.756 88.0955 221.18 89.0916C220.61 90.0877 219.822 90.8601 218.815 91.4087C217.814 91.9521 216.663 92.2237 215.363 92.2237C213.915 92.2237 212.642 91.8828 211.544 91.201C210.452 90.5192 209.6 89.5497 208.987 88.2926C208.38 87.0355 208.077 85.544 208.077 83.8182C208.077 82.5238 208.25 81.3599 208.596 80.3265C208.947 79.2878 209.443 78.4036 210.082 77.6738C210.721 76.9441 211.478 76.3848 212.351 75.9959C213.225 75.6071 214.186 75.4126 215.236 75.4126C216.099 75.4126 216.903 75.5431 217.649 75.8042C218.4 76.0598 219.068 76.4247 219.654 76.8988C220.245 77.3675 220.738 77.9295 221.132 78.5847C221.526 79.2346 221.798 79.9563 221.947 80.75H219.902Z" fill="#212121"/>
<rect x="155.425" y="62" width="35" height="42" rx="4.6" fill="white"/>
<path d="M168.322 92V75.6364H178.133V77.3942H170.303V82.9233H177.398V84.6811H170.303V92H168.322Z" fill="#212121"/>
<rect x="114.916" y="62" width="35" height="42" rx="4.6" fill="white"/>
<path d="M131.926 92H126.876V75.6364H132.15C133.737 75.6364 135.096 75.964 136.225 76.6191C137.354 77.269 138.22 78.2038 138.822 79.4237C139.424 80.6381 139.724 82.0923 139.724 83.7862C139.724 85.4908 139.421 86.9583 138.814 88.1887C138.206 89.4139 137.322 90.3567 136.161 91.0172C135 91.6724 133.588 92 131.926 92ZM128.858 90.2422H131.798C133.151 90.2422 134.273 89.9812 135.162 89.4592C136.052 88.9371 136.715 88.1941 137.152 87.2299C137.588 86.2658 137.807 85.1179 137.807 83.7862C137.807 82.4652 137.591 81.3279 137.16 80.3745C136.728 79.4157 136.084 78.6806 135.226 78.1692C134.368 77.6525 133.3 77.3942 132.022 77.3942H128.858V90.2422Z" fill="#212121"/>
<rect x="73.3117" y="62" width="35" height="42" rx="4.6" fill="white"/>
<path d="M95.1331 79.7273C95.0372 78.9176 94.6483 78.2891 93.9665 77.8416C93.2847 77.3942 92.4484 77.1705 91.4576 77.1705C90.7332 77.1705 90.0993 77.2876 89.556 77.522C89.018 77.7564 88.5972 78.0787 88.2936 78.4888C87.9953 78.899 87.8461 79.3651 87.8461 79.8871C87.8461 80.3239 87.95 80.6994 88.1577 81.0137C88.3708 81.3226 88.6425 81.581 88.9727 81.7887C89.303 81.9911 89.6492 82.1589 90.0114 82.2921C90.3736 82.4199 90.7066 82.5238 91.0102 82.6037L92.6721 83.0511C93.0983 83.163 93.5723 83.3175 94.0943 83.5146C94.6217 83.7116 95.1251 83.9806 95.6045 84.3216C96.0892 84.6571 96.4887 85.0886 96.803 85.6159C97.1172 86.1433 97.2744 86.7905 97.2744 87.5575C97.2744 88.4418 97.0427 89.2408 96.5793 89.9545C96.1212 90.6683 95.45 91.2356 94.5658 91.6564C93.6869 92.0772 92.6188 92.2876 91.3617 92.2876C90.1899 92.2876 89.1751 92.0985 88.3175 91.7203C87.4653 91.3422 86.7941 90.8148 86.304 90.1383C85.8193 89.4618 85.545 88.6761 85.4811 87.7812H87.5265C87.5798 88.3991 87.7875 88.9105 88.1497 89.3153C88.5173 89.7148 88.9807 90.0131 89.54 90.2102C90.1046 90.402 90.7119 90.4979 91.3617 90.4979C92.1181 90.4979 92.7973 90.3754 93.3992 90.1303C94.0011 89.88 94.4779 89.5337 94.8294 89.0916C95.181 88.6442 95.3568 88.1222 95.3568 87.5256C95.3568 86.9822 95.205 86.5401 94.9013 86.1992C94.5977 85.8583 94.1982 85.5813 93.7028 85.3683C93.2074 85.1552 92.6721 84.9687 92.0968 84.8089L90.0833 84.2337C88.8049 83.8661 87.7929 83.3414 87.0471 82.6596C86.3014 81.9778 85.9285 81.0856 85.9285 79.983C85.9285 79.0668 86.1762 78.2678 86.6716 77.5859C87.1723 76.8988 87.8435 76.3661 88.6851 75.9879C89.532 75.6044 90.4775 75.4126 91.5215 75.4126C92.5762 75.4126 93.5137 75.6017 94.334 75.9799C95.1544 76.3528 95.8042 76.8642 96.2836 77.514C96.7684 78.1639 97.024 78.9016 97.0507 79.7273H95.1331Z" fill="#212121"/>
<rect x="32.8023" y="62" width="35" height="42" rx="4.6" fill="white"/>
<path d="M45.3701 92H43.2926L49.3012 75.6364H51.3466L57.3551 92H55.2777L50.3878 78.2251H50.26L45.3701 92ZM46.1371 85.608H54.5107V87.3658H46.1371V85.608Z" fill="#212121"/>
<rect x="380.965" y="8" width="35" height="42" rx="4.6" fill="white"/>
<path d="M393.87 38V21.6364H399.4C400.683 21.6364 401.733 21.8681 402.548 22.3315C403.368 22.7896 403.975 23.4102 404.369 24.1932C404.764 24.9762 404.961 25.8498 404.961 26.8139C404.961 27.7781 404.764 28.6543 404.369 29.4426C403.98 30.231 403.379 30.8596 402.564 31.3283C401.749 31.7917 400.705 32.0234 399.431 32.0234H395.468V30.2656H399.368C400.246 30.2656 400.952 30.1138 401.485 29.8102C402.018 29.5066 402.404 29.0964 402.643 28.5797C402.889 28.0577 403.011 27.4691 403.011 26.8139C403.011 26.1587 402.889 25.5728 402.643 25.0561C402.404 24.5394 402.015 24.1346 401.477 23.8416C400.939 23.5433 400.225 23.3942 399.336 23.3942H395.852V38H393.87Z" fill="#212121"/>
<rect x="340.456" y="8" width="35" height="42" rx="4.6" fill="white"/>
<path d="M365.192 29.8182C365.192 31.544 364.881 33.0355 364.257 34.2926C363.634 35.5497 362.779 36.5192 361.693 37.201C360.606 37.8828 359.365 38.2237 357.969 38.2237C356.574 38.2237 355.332 37.8828 354.246 37.201C353.159 36.5192 352.304 35.5497 351.681 34.2926C351.058 33.0355 350.746 31.544 350.746 29.8182C350.746 28.0923 351.058 26.6009 351.681 25.3438C352.304 24.0866 353.159 23.1172 354.246 22.4354C355.332 21.7536 356.574 21.4126 357.969 21.4126C359.365 21.4126 360.606 21.7536 361.693 22.4354C362.779 23.1172 363.634 24.0866 364.257 25.3438C364.881 26.6009 365.192 28.0923 365.192 29.8182ZM363.275 29.8182C363.275 28.4013 363.038 27.2054 362.563 26.2306C362.095 25.2559 361.458 24.5181 360.654 24.0174C359.855 23.5167 358.96 23.2663 357.969 23.2663C356.978 23.2663 356.081 23.5167 355.277 24.0174C354.478 24.5181 353.841 25.2559 353.367 26.2306C352.898 27.2054 352.664 28.4013 352.664 29.8182C352.664 31.2351 352.898 32.4309 353.367 33.4057C353.841 34.3805 354.478 35.1183 355.277 35.619C356.081 36.1197 356.978 36.37 357.969 36.37C358.96 36.37 359.855 36.1197 360.654 35.619C361.458 35.1183 362.095 34.3805 362.563 33.4057C363.038 32.4309 363.275 31.2351 363.275 29.8182Z" fill="#212121"/>
<rect x="298.851" y="8" width="35" height="42" rx="4.6" fill="white"/>
<path d="M317.354 21.6364V38H315.373V21.6364H317.354Z" fill="#212121"/>
<rect x="258.342" y="8" width="35" height="42" rx="4.6" fill="white"/>
<path d="M280.788 21.6364H282.77V32.4709C282.77 33.5895 282.506 34.5882 281.979 35.4672C281.457 36.3407 280.719 37.0305 279.765 37.5366C278.812 38.0373 277.693 38.2876 276.41 38.2876C275.126 38.2876 274.007 38.0373 273.054 37.5366C272.1 37.0305 271.36 36.3407 270.833 35.4672C270.31 34.5882 270.049 33.5895 270.049 32.4709V21.6364H272.031V32.3111C272.031 33.1101 272.207 33.8212 272.558 34.4444C272.91 35.0623 273.411 35.5497 274.06 35.9066C274.716 36.2582 275.499 36.4339 276.41 36.4339C277.32 36.4339 278.103 36.2582 278.759 35.9066C279.414 35.5497 279.915 35.0623 280.261 34.4444C280.612 33.8212 280.788 33.1101 280.788 32.3111V21.6364Z" fill="#212121"/>
<rect x="216.737" y="8" width="35" height="42" rx="4.6" fill="white"/>
<path d="M227.896 21.6364H230.165L234.704 29.2749H234.895L239.434 21.6364H241.703L235.79 31.2564V38H233.809V31.2564L227.896 21.6364Z" fill="#212121"/>
<rect x="176.228" y="8" width="35" height="42" rx="4.6" fill="white"/>
<path d="M188.161 23.3942V21.6364H200.434V23.3942H195.288V38H193.307V23.3942H188.161Z" fill="#212121"/>
<rect x="134.623" y="8" width="35" height="42" rx="4.6" fill="white"/>
<path d="M147.473 38V21.6364H153.003C154.281 21.6364 155.33 21.8548 156.151 22.2915C156.971 22.723 157.578 23.3169 157.972 24.0733C158.367 24.8297 158.564 25.69 158.564 26.6541C158.564 27.6183 158.367 28.4732 157.972 29.2189C157.578 29.9647 156.974 30.5506 156.159 30.9767C155.344 31.3975 154.302 31.608 153.035 31.608H148.56V29.8182H152.971C153.844 29.8182 154.547 29.6903 155.08 29.4347C155.618 29.179 156.007 28.8168 156.247 28.348C156.492 27.8739 156.614 27.3093 156.614 26.6541C156.614 25.9989 156.492 25.4263 156.247 24.9363C156.001 24.4462 155.61 24.068 155.072 23.8017C154.534 23.53 153.823 23.3942 152.939 23.3942H149.455V38H147.473ZM155.176 30.6491L159.203 38H156.902L152.939 30.6491H155.176Z" fill="#212121"/>
<rect x="94.1135" y="8" width="35" height="42" rx="4.6" fill="white"/>
<path d="M106.889 38V21.6364H116.765V23.3942H108.871V28.9233H116.253V30.6811H108.871V36.2422H116.893V38H106.889Z" fill="#212121"/>
<rect x="52.5094" y="8" width="35" height="42" rx="4.6" fill="white"/>
<path d="M64.3021 38L59.8277 21.6364H61.8412L65.2609 34.9638H65.4207L68.9044 21.6364H71.1416L74.6253 34.9638H74.7851L78.2048 21.6364H80.2183L75.7439 38H73.6984L70.0869 24.9602H69.9591L66.3476 38H64.3021Z" fill="#212121"/>
<rect x="12" y="8" width="35" height="42" rx="4.6" fill="white"/>
<path d="M28.8744 32.8864H31.0477L32.8694 35.2834L33.3488 35.9226L36.0655 39.5341H33.8922L32.1024 37.1371L31.6549 36.5298L28.8744 32.8864ZM36.7366 29.8182C36.7366 31.544 36.425 33.0355 35.8018 34.2926C35.1786 35.5497 34.3236 36.5192 33.237 37.201C32.1503 37.8828 30.9092 38.2237 29.5136 38.2237C28.118 38.2237 26.8769 37.8828 25.7902 37.201C24.7036 36.5192 23.8487 35.5497 23.2254 34.2926C22.6022 33.0355 22.2906 31.544 22.2906 29.8182C22.2906 28.0923 22.6022 26.6009 23.2254 25.3438C23.8487 24.0866 24.7036 23.1172 25.7902 22.4354C26.8769 21.7536 28.118 21.4126 29.5136 21.4126C30.9092 21.4126 32.1503 21.7536 33.237 22.4354C34.3236 23.1172 35.1786 24.0866 35.8018 25.3438C36.425 26.6009 36.7366 28.0923 36.7366 29.8182ZM34.819 29.8182C34.819 28.4013 34.582 27.2054 34.1079 26.2306C33.6391 25.2559 33.0026 24.5181 32.1983 24.0174C31.3993 23.5167 30.5044 23.2663 29.5136 23.2663C28.5228 23.2663 27.6253 23.5167 26.821 24.0174C26.0219 24.5181 25.3854 25.2559 24.9113 26.2306C24.4426 27.2054 24.2082 28.4013 24.2082 29.8182C24.2082 31.2351 24.4426 32.4309 24.9113 33.4057C25.3854 34.3805 26.0219 35.1183 26.821 35.619C27.6253 36.1197 28.5228 36.37 29.5136 36.37C30.5044 36.37 31.3993 36.1197 32.1983 35.619C33.0026 35.1183 33.6391 34.3805 34.1079 33.4057C34.582 32.4309 34.819 31.2351 34.819 29.8182Z" fill="#212121"/>
<defs>
<filter id="filter0_b_1_2095" x="-81.5485" y="-81.5485" width="591.097" height="454.097" filterUnits="userSpaceOnUse" color-interpolation-filters="sRGB">
<feFlood flood-opacity="0" result="BackgroundImageFix"/>
<feGaussianBlur in="BackgroundImageFix" stdDeviation="40.7742"/>
<feComposite in2="SourceAlpha" operator="in" result="effect1_backgroundBlur_1_2095"/>
<feBlend mode="normal" in="SourceGraphic" in2="effect1_backgroundBlur_1_2095" result="shape"/>
</filter>
</defs>
</svg>
