<svg width="331" height="334" viewBox="0 0 331 334" fill="none" xmlns="http://www.w3.org/2000/svg">
<path d="M162.681 323.037C163.921 327.226 162.764 331.795 160.291 332.597C157.819 333.399 155.462 332.269 154.222 328.081C152.982 323.892 153.951 321.742 156.423 320.94C158.895 320.138 161.441 318.848 162.681 323.037Z" fill="#FFB8C2"/>
<path d="M321.014 312.732C315.303 318.154 307.123 319.685 303.923 315.991C300.724 312.297 300.691 307.302 306.402 301.88C312.113 296.459 316.291 296.48 319.491 300.174C322.691 303.868 326.725 307.31 321.014 312.732Z" fill="#FFB8C2"/>
<path d="M40.9818 304.5C33.0633 312.018 19.3162 311.364 12.2831 303.244C5.24994 295.125 3.267 285.963 11.1855 278.445C19.104 270.927 26.4354 272.732 33.4685 280.851C40.5017 288.971 48.9003 296.982 40.9818 304.5Z" fill="#FFB8C2"/>
<path d="M73.1813 179.846C74.4214 184.034 73.2642 188.603 70.7921 189.405C68.3199 190.207 65.9629 189.078 64.7229 184.889C63.4829 180.701 64.4516 178.551 66.9237 177.749C69.3959 176.947 71.9413 175.657 73.1813 179.846Z" fill="#FFB8C2"/>
<g clip-path="url(#clip0_1_2174)">
<rect x="98.3859" y="97" width="133.728" height="140" rx="48" fill="url(#paint0_linear_1_2174)"/>
<path fill-rule="evenodd" clip-rule="evenodd" d="M161.152 125.213C143.681 127.056 129.095 141.033 125.724 159.165C124.94 163.381 124.933 170.529 125.708 174.695C129.691 196.092 148.688 211.011 169.109 208.779C175.071 208.127 180.808 206.192 185.635 203.204C195.506 197.093 202.583 186.561 204.792 174.695C205.567 170.529 205.56 163.381 204.776 159.165C200.803 137.798 181.831 123.033 161.152 125.213ZM169.532 146.49C175.045 147.682 180.802 152.438 183.239 157.814C184.728 161.098 185.256 163.536 185.249 167.084C185.23 176.712 179.132 184.877 170.135 187.321C167.174 188.125 161.681 187.917 158.888 186.895C149.205 183.352 143.557 172.961 145.63 162.504C147.076 155.214 153.439 148.384 160.432 146.615C162.753 146.028 167.115 145.968 169.532 146.49ZM161.503 155.043C156.581 156.65 153.317 161.407 153.317 166.974C153.317 170.641 154.339 173.229 156.799 175.798C159.259 178.366 161.738 179.433 165.25 179.433C168.762 179.433 171.241 178.366 173.701 175.798C176.146 173.245 177.185 170.632 177.177 167.052C177.171 163.978 176.821 163.263 175.981 164.601C175.259 165.752 172.892 166.955 171.327 166.966C168.142 166.989 165.25 164.003 165.25 160.69C165.25 159.139 166.513 156.461 167.592 155.723C168.242 155.279 168.339 155.062 167.991 154.832C167.292 154.369 163.156 154.504 161.503 155.043Z" fill="white"/>
</g>
<path d="M290.704 109.818C289.839 98.3876 299.016 87.1218 309.776 86.2302C320.536 85.3385 328.924 89.3887 329.788 100.819C330.652 112.249 324.624 117.346 313.864 118.237C303.104 119.129 291.568 121.247 290.704 109.818Z" fill="#FF7185"/>
<path d="M19.1624 87.4448C16.983 89.8738 11.8935 86.9392 9.25531 84.1773C6.61709 81.4153 3.27861 75.9763 7.12303 71.9516C10.9674 67.9269 16.1134 73.4968 18.7516 76.2588C21.3898 79.0207 21.3417 85.0159 19.1624 87.4448Z" fill="#FF94A4"/>
<path d="M125.794 39.2792C120.083 44.7009 111.902 46.2316 108.703 42.5375C105.503 38.8434 105.47 33.8491 111.181 28.4273C116.892 23.0055 121.07 23.0265 124.27 26.7205C127.47 30.4146 131.504 33.8574 125.794 39.2792Z" fill="#FFB8C2"/>
<path d="M226.979 3.62709C228.008 7.64919 225.441 12.3067 221.655 13.3688C217.869 14.4309 214.618 13.5643 213.588 9.54224C212.559 5.52013 214.39 3.28323 218.177 2.22112C221.963 1.15901 225.949 -0.395019 226.979 3.62709Z" fill="#FFB8C2"/>
<defs>
<linearGradient id="paint0_linear_1_2174" x1="232.114" y1="237" x2="71.9013" y2="192.629" gradientUnits="userSpaceOnUse">
<stop stop-color="#FF4D67"/>
<stop offset="1" stop-color="#FF8A9B"/>
</linearGradient>
<clipPath id="clip0_1_2174">
<rect width="133.728" height="140" fill="white" transform="translate(98.3859 97)"/>
</clipPath>
</defs>
</svg>
