<svg width="22" height="24" viewBox="0 0 22 24" fill="none" xmlns="http://www.w3.org/2000/svg">
<path fill-rule="evenodd" clip-rule="evenodd" d="M11 9.08325C12.611 9.08325 13.9166 10.3889 13.9166 11.9999C13.9166 13.6109 12.611 14.9166 11 14.9166C9.38895 14.9166 8.08331 13.6109 8.08331 11.9999C8.08331 10.3889 9.38895 9.08325 11 9.08325Z" stroke="#212121" stroke-width="1.5" stroke-linecap="round" stroke-linejoin="round"/>
<path fill-rule="evenodd" clip-rule="evenodd" d="M20.5293 6.45858V6.45858C19.7318 5.06762 17.9664 4.59167 16.5866 5.3949C15.3864 6.09211 13.8864 5.21974 13.8864 3.82416C13.8864 2.21885 12.5935 0.916626 10.9997 0.916626V0.916626C9.40591 0.916626 8.11302 2.21885 8.11302 3.82416C8.11302 5.21974 6.61304 6.09211 5.41397 5.3949C4.03299 4.59167 2.26757 5.06762 1.47009 6.45858C0.673767 7.84954 1.1463 9.62772 2.52729 10.4298C3.72635 11.1282 3.72635 12.8718 2.52729 13.5701C1.1463 14.3734 0.673767 16.1515 1.47009 17.5413C2.26757 18.9323 4.03299 19.4082 5.41283 18.6062H5.41397C6.61304 17.9078 8.11302 18.7802 8.11302 20.1758V20.1758C8.11302 21.7811 9.40591 23.0833 10.9997 23.0833V23.0833C12.5935 23.0833 13.8864 21.7811 13.8864 20.1758V20.1758C13.8864 18.7802 15.3864 17.9078 16.5866 18.6062C17.9664 19.4082 19.7318 18.9323 20.5293 17.5413C21.3268 16.1515 20.8531 14.3734 19.4733 13.5701H19.4721C18.2731 12.8718 18.2731 11.1282 19.4733 10.4298C20.8531 9.62772 21.3268 7.84954 20.5293 6.45858Z" stroke="#212121" stroke-width="1.5" stroke-linecap="round" stroke-linejoin="round"/>
</svg>
