<svg width="22" height="24" viewBox="0 0 22 24" fill="none" xmlns="http://www.w3.org/2000/svg">
<path fill-rule="evenodd" clip-rule="evenodd" d="M11 9.0835C12.611 9.0835 13.9166 10.3891 13.9166 12.0002C13.9166 13.6112 12.611 14.9168 11 14.9168C9.38895 14.9168 8.08331 13.6112 8.08331 12.0002C8.08331 10.3891 9.38895 9.0835 11 9.0835Z" stroke="#EEEEEE" stroke-width="1.5" stroke-linecap="round" stroke-linejoin="round"/>
<path fill-rule="evenodd" clip-rule="evenodd" d="M20.5293 6.4587V6.4587C19.7318 5.06774 17.9664 4.59179 16.5866 5.39503C15.3864 6.09224 13.8864 5.21986 13.8864 3.82429C13.8864 2.21898 12.5935 0.916748 10.9997 0.916748V0.916748C9.40591 0.916748 8.11302 2.21898 8.11302 3.82429C8.11302 5.21986 6.61304 6.09224 5.41397 5.39503C4.03299 4.59179 2.26757 5.06774 1.47009 6.4587C0.673767 7.84967 1.1463 9.62784 2.52729 10.4299C3.72635 11.1283 3.72635 12.8719 2.52729 13.5702C1.1463 14.3735 0.673767 16.1517 1.47009 17.5415C2.26757 18.9324 4.03299 19.4084 5.41283 18.6063H5.41397C6.61304 17.9079 8.11302 18.7803 8.11302 20.1759V20.1759C8.11302 21.7812 9.40591 23.0834 10.9997 23.0834V23.0834C12.5935 23.0834 13.8864 21.7812 13.8864 20.1759V20.1759C13.8864 18.7803 15.3864 17.9079 16.5866 18.6063C17.9664 19.4084 19.7318 18.9324 20.5293 17.5415C21.3268 16.1517 20.8531 14.3735 19.4733 13.5702H19.4721C18.2731 12.8719 18.2731 11.1283 19.4733 10.4299C20.8531 9.62784 21.3268 7.84967 20.5293 6.4587Z" stroke="#EEEEEE" stroke-width="1.5" stroke-linecap="round" stroke-linejoin="round"/>
</svg>
